<svg xmlns="http://www.w3.org/2000/svg" viewBox="0 0 134.9 31.54"><defs><style>.cls-1{isolation:isolate;}.cls-2{fill:#fff;}</style></defs><title>Asset 2</title><g id="Layer_2" data-name="Layer 2"><g id="Layer_1-2" data-name="Layer 1"><g class="cls-1"><path class="cls-2" d="M6.41,5.69H0V1.55H18.2V5.69H11.79V25.13H6.41Z"/><path class="cls-2" d="M20.47,0h4.76V10.55a5.88,5.88,0,0,1,5.58-3.1c3.41,0,5.79,2.07,5.79,6.72V25.23H31.85V14.89c0-2.38-.93-3.52-3-3.52s-3.62,1.24-3.62,3.83v10H20.47Z"/></g><g class="cls-1"><path class="cls-2" d="M38.48,2.9A2.65,2.65,0,0,1,41.17.31,2.68,2.68,0,0,1,44,2.9a2.68,2.68,0,0,1-2.79,2.59A2.65,2.65,0,0,1,38.48,2.9Zm.41,5h4.76V25.13H38.9Z"/></g><g class="cls-1"><path class="cls-2" d="M46,7.86H50.8v2.79a5.88,5.88,0,0,1,5.58-3.1c3.41,0,5.79,2.07,5.79,6.72V25.33H57.42V15c0-2.38-.93-3.52-3-3.52S50.8,12.72,50.8,15.3v10H46Z"/></g><g class="cls-1"><path class="cls-2" d="M64,0h4.86V15.2l5.58-7.34h5.07l-6.31,7.86L80,25.13H74.6L68.81,17v8.17H64.05V0Z"/></g><path class="cls-2" d="M95.89,22.44v2.79H91.13V0h4.76V10.55a6.39,6.39,0,0,1,5.48-3.1c4.24,0,7.55,3.1,7.55,8.89v.21c0,5.69-3.21,8.89-7.55,8.89A5.69,5.69,0,0,1,95.89,22.44Zm8.17-5.79v-.31c0-3.52-1.76-5.27-4.14-5.27s-4.24,1.76-4.24,5.27v.31c0,3.52,1.65,5.17,4.24,5.17S104.05,20,104.05,16.65Z"/><path class="cls-2" d="M110.27,2.9A2.65,2.65,0,0,1,113,.31a2.68,2.68,0,0,1,2.79,2.59A2.68,2.68,0,0,1,113,5.48,2.65,2.65,0,0,1,110.27,2.9Zm.41,5h4.76V25.13h-4.76Z"/><path class="cls-2" d="M117.22,25.54H122c.31,1.55,1.34,2.48,3.83,2.48,2.9,0,4.34-1.55,4.34-4.24V21.2a6.51,6.51,0,0,1-5.58,3.21c-4.24,0-7.55-3.1-7.55-8.27v-.21c0-5,3.31-8.48,7.65-8.48a5.76,5.76,0,0,1,5.48,3V7.86h4.76V23.78c0,5.17-3.41,7.76-9.1,7.76S117.74,29.06,117.22,25.54ZM130.35,16v-.21c0-2.9-1.55-4.76-4.14-4.76s-4.14,2-4.14,4.76v.31c0,2.9,1.65,4.65,4,4.65S130.35,19,130.35,16Z"/></g></g></svg>