<?xml version="1.0" encoding="utf-8"?>
<!-- Generator: Adobe Illustrator 21.1.0, SVG Export Plug-In . SVG Version: 6.00 Build 0)  -->
<svg version="1.1" id="Layer_1" xmlns="http://www.w3.org/2000/svg" xmlns:xlink="http://www.w3.org/1999/xlink" x="0px" y="0px"
	 viewBox="0 0 155 23" style="enable-background:new 0 0 155 23;" xml:space="preserve">
<style type="text/css">
	.st0{fill:#F26522;}
	.st1{fill:#FFFFFF;}
</style>
<title>Asset 4</title>
<rect class="st0" width="155" height="23"/>
<path class="st1" d="M134.2,12.7l3.6-3.3l1,0.9l-4.6,4.2l-4.6-4.2l1-0.9L134.2,12.7z"/>
<g>
	<path class="st1" d="M16.7,7h5.6v1.5h-3.7v2h2.9v1.4h-2.9v2.1h3.8v1.5h-5.8V7z"/>
	<path class="st1" d="M25.3,12.4l-2-3.1h2l1.2,1.9l1.2-1.9h1.8l-2,2.9l2.2,3.3h-2l-1.3-2.1L25,15.6h-1.8L25.3,12.4z"/>
	<path class="st1" d="M30.6,9.3h1.7v1c0.3-0.6,1.1-1.1,2-1.1c1.5,0,2.7,1.1,2.7,3.2v0.1c0,2.1-1.2,3.2-2.7,3.2c-1,0-1.7-0.5-2-1.1
		v3.1h-1.7V9.3z M35.4,12.5L35.4,12.5c0-1.4-0.6-2-1.5-2c-0.9,0-1.5,0.6-1.5,1.9v0.1c0,1.3,0.6,1.9,1.5,1.9
		C34.8,14.4,35.4,13.7,35.4,12.5z"/>
	<path class="st1" d="M37.9,13.8c0-1.5,1.3-2,3.3-2h0.7v-0.3c0-0.7-0.2-1.2-1-1.2c-0.7,0-1,0.3-1.1,0.9h-1.6
		c0.1-1.5,1.3-2.1,2.8-2.1s2.6,0.6,2.6,2.3v4.1h-1.7v-0.8c-0.4,0.5-0.9,0.9-1.9,0.9C38.8,15.7,37.9,15.2,37.9,13.8z M41.9,13.4v-0.5
		h-0.7c-1,0-1.6,0.2-1.6,0.9c0,0.5,0.3,0.8,0.9,0.8C41.3,14.5,41.9,14.1,41.9,13.4z"/>
	<path class="st1" d="M45.1,9.3h1.7v1c0.3-0.6,1-1.1,2-1.1c1.2,0,2.1,0.7,2.1,2.4v4h-1.7v-3.7c0-0.9-0.3-1.3-1.1-1.3
		c-0.7,0-1.3,0.5-1.3,1.4v3.6h-1.7V9.3z"/>
	<path class="st1" d="M52.1,12.5L52.1,12.5c0-2.2,1.2-3.4,2.8-3.4c1,0,1.6,0.4,2,1.1V6.5h1.7v9.1h-1.7v-1c-0.3,0.6-1.1,1.2-2,1.2
		C53.3,15.7,52.1,14.6,52.1,12.5z M56.9,12.5L56.9,12.5c0-1.3-0.6-2-1.5-2c-1,0-1.5,0.7-1.5,1.9v0.1c0,1.2,0.6,1.9,1.5,1.9
		C56.2,14.4,56.9,13.7,56.9,12.5z"/>
	<path class="st1" d="M63,10.5h-0.8V9.3H63V8.6c0-1.5,0.9-2.2,2.2-2.2c0.4,0,0.6,0,0.9,0.1v1.3c-0.2-0.1-0.4-0.1-0.6-0.1
		c-0.6,0-0.8,0.3-0.8,0.8v0.8h1.4v1.2h-1.4v5H63V10.5z"/>
	<path class="st1" d="M66.6,12.5L66.6,12.5c0-2.1,1.4-3.3,3.3-3.3c1.9,0,3.3,1.3,3.3,3.2v0.1c0,2-1.4,3.2-3.3,3.2
		C68,15.7,66.6,14.5,66.6,12.5z M71.4,12.5L71.4,12.5c0-1.3-0.6-2-1.5-2c-1,0-1.5,0.7-1.5,1.9v0.1c0,1.2,0.6,1.9,1.5,1.9
		C70.9,14.4,71.4,13.7,71.4,12.5z"/>
	<path class="st1" d="M74.3,9.3h1.7v1.2c0.4-0.8,1-1.3,2-1.3v1.6c-1.3,0-2,0.4-2,1.6v3.1h-1.7V9.3z"/>
	<path class="st1" d="M81.3,9.3h1.9l1.5,4.5l1.5-4.5h1.7l-2.3,6.3h-2L81.3,9.3z"/>
	<path class="st1" d="M88.7,7.5c0-0.5,0.4-0.9,1-0.9c0.6,0,1,0.4,1,0.9c0,0.5-0.4,0.9-1,0.9C89.1,8.5,88.7,8,88.7,7.5z M88.8,9.3
		h1.7v6.3h-1.7V9.3z"/>
	<path class="st1" d="M91.8,12.5L91.8,12.5c0-2.2,1.2-3.4,2.8-3.4c1,0,1.6,0.4,2,1.1V6.5h1.7v9.1h-1.7v-1c-0.3,0.6-1.1,1.2-2,1.2
		C93,15.7,91.8,14.6,91.8,12.5z M96.6,12.5L96.6,12.5c0-1.3-0.6-2-1.5-2c-1,0-1.5,0.7-1.5,1.9v0.1c0,1.2,0.6,1.9,1.5,1.9
		C95.9,14.4,96.6,13.7,96.6,12.5z"/>
	<path class="st1" d="M99.4,12.5L99.4,12.5c0-2.1,1.4-3.4,3.2-3.4c1.6,0,3.1,0.9,3.1,3.2v0.5h-4.5c0,1,0.6,1.6,1.6,1.6
		c0.8,0,1.2-0.3,1.3-0.9h1.6c-0.2,1.4-1.3,2.1-3,2.1C100.8,15.7,99.4,14.5,99.4,12.5z M104,11.8c-0.1-0.9-0.5-1.4-1.4-1.4
		c-0.8,0-1.3,0.5-1.4,1.4H104z"/>
	<path class="st1" d="M106.5,12.5L106.5,12.5c0-2.1,1.4-3.3,3.3-3.3c1.9,0,3.3,1.3,3.3,3.2v0.1c0,2-1.4,3.2-3.3,3.2
		C107.9,15.7,106.5,14.5,106.5,12.5z M111.3,12.5L111.3,12.5c0-1.3-0.6-2-1.5-2c-1,0-1.5,0.7-1.5,1.9v0.1c0,1.2,0.6,1.9,1.5,1.9
		C110.7,14.4,111.3,13.7,111.3,12.5z"/>
</g>
</svg>
