<svg xmlns="http://www.w3.org/2000/svg" viewBox="0 0 50 18.31"><defs><style>.cls-1{fill:#f26522;}</style></defs><title>Asset 1</title><g id="Layer_2" data-name="Layer 2"><g id="Layer_1-2" data-name="Layer 1"><g id="Layer_2-2" data-name="Layer 2"><g id="Layer_1-2-2" data-name="Layer 1-2"><path class="cls-1" d="M0,0H8.17c4.32,0,6.17,1.95,6.17,4.79v.1a3.77,3.77,0,0,1-3.1,3.94,4,4,0,0,1,3.66,4.28v.1c0,3.28-2.13,5.1-6.66,5.1H0ZM7.12,7.27c1.64,0,2.25-.56,2.25-1.87v-.1c0-1.25-.67-1.82-2.25-1.82h-2V7.27ZM7.3,14.8C9,14.8,9.73,14,9.73,12.68v-.1c0-1.38-.74-2.1-2.59-2.1h-2V14.8Z"/><path class="cls-1" d="M35.68,0h7C47.67,0,50,2.23,50,6.12v.1c0,3.84-2.59,5.92-7.12,5.92h-2v6.17H35.68Zm6.74,8.55c1.69,0,2.59-.79,2.59-2.3v-.1c0-1.56-.92-2.2-2.56-2.2H40.91V8.55Z"/><polygon class="cls-1" points="27.68 0 27.68 6.99 21.66 6.99 21.66 0 16.39 0 16.39 18.31 21.66 18.31 21.66 11.09 27.68 11.09 27.68 18.31 32.93 18.31 32.93 0 27.68 0"/></g></g></g></g></svg>