<svg xmlns="http://www.w3.org/2000/svg" viewBox="0 0 270.89 65.76"><defs><style>.cls-1{fill:#fff;}</style></defs><title>Asset 1</title><g id="Layer_2" data-name="Layer 2"><g id="Layer_1-2" data-name="Layer 1"><path class="cls-1" d="M13.32,11.8H0V3.11H37.88V11.8H24.56V52.44H13.32Z"/><path class="cls-1" d="M40.5,0h10V22.08c1.79-3.59,5.73-6.55,11.73-6.55,7.11,0,12.14,4.28,12.14,13.94v23h-10V30.91c0-4.9-1.93-7.24-6.35-7.24s-7.52,2.62-7.52,7.94V52.44h-10Z"/><path class="cls-1" d="M79,6a5.7,5.7,0,1,1,5.66,5.45A5.47,5.47,0,0,1,79,6Zm.76,10.35H89.7V52.44H79.76Z"/><path class="cls-1" d="M95.08,16.35h10v5.73c1.79-3.59,5.73-6.55,11.73-6.55,7.11,0,12.14,4.28,12.14,13.94v23H119V30.91c0-4.9-1.93-7.24-6.35-7.24s-7.52,2.62-7.52,7.94V52.44h-10Z"/><path class="cls-1" d="M133.37,0h10V31.6L155,16.35H165.6L152.49,32.78l14.14,19.67H155.32l-11.94-17v17h-10Z"/><path class="cls-1" d="M189.4,46.71v5.73h-10V0h10V22a13.4,13.4,0,0,1,11.52-6.49c8.83,0,15.73,6.55,15.73,18.49v.55c0,11.94-6.76,18.63-15.73,18.63C195.33,53.2,191.26,50.44,189.4,46.71Zm17.11-12.08v-.55c0-7.31-3.59-10.9-8.62-10.9-5.24,0-8.83,3.66-8.83,10.9v.55c0,7.25,3.45,10.76,8.9,10.76S206.51,41.68,206.51,34.64Z"/><path class="cls-1" d="M219.41,6a5.7,5.7,0,1,1,5.66,5.45A5.47,5.47,0,0,1,219.41,6Zm.76,10.35h9.94V52.44h-9.94Z"/><path class="cls-1" d="M233.9,53.2h9.94c.62,3.17,2.9,5.24,8,5.24,6.07,0,9.11-3.17,9.11-8.83V44.16a13.54,13.54,0,0,1-11.59,6.69c-8.76,0-15.73-6.55-15.73-17.25v-.48c0-10.35,6.9-17.59,15.87-17.59,5.87,0,9.38,2.55,11.45,6.21V16.35h9.94V49.61c-.07,10.7-7.18,16.15-19,16.15C240.18,65.76,234.87,60.65,233.9,53.2Zm27.32-19.73V33c0-6.14-3.24-9.87-8.69-9.87s-8.69,4-8.69,9.94v.55c0,6,3.52,9.73,8.49,9.73C257.57,43.33,261.23,39.61,261.23,33.46Z"/></g></g></svg>