<?xml version="1.0" encoding="utf-8"?>
<!-- Generator: Adobe Illustrator 21.1.0, SVG Export Plug-In . SVG Version: 6.00 Build 0)  -->
<svg version="1.1" id="Layer_1" xmlns="http://www.w3.org/2000/svg" xmlns:xlink="http://www.w3.org/1999/xlink" x="0px" y="0px"
	 viewBox="0 0 138 23" style="enable-background:new 0 0 138 23;" xml:space="preserve">
<style type="text/css">
	.st0{fill:#F26522;}
	.st1{enable-background:new    ;}
	.st2{fill:#FFFFFF;}
</style>
<title>Asset 2</title>
<g id="Layer_2">
	<g id="Layer_1-2">
		<rect class="st0" width="138" height="23"/>
		<g class="st1">
			<path class="st2" d="M19,6.6h6v1.7h-3.9v2.5h3.1v1.6h-3.1v3.6H19V6.6z"/>
		</g>
		<g class="st1">
			<path class="st2" d="M26,7.1c0-0.6,0.5-1,1.1-1c0.6,0,1.1,0.4,1.1,1s-0.5,1-1.1,1C26.4,8.2,26,7.7,26,7.1z M26.1,9.1H28v6.8h-1.9
				V9.1z"/>
			<path class="st2" d="M29.7,9.1h1.9v1.1c0.3-0.7,1.1-1.2,2.2-1.2c1.3,0,2.3,0.8,2.3,2.6v4.3h-1.9v-4.1c0-0.9-0.4-1.4-1.2-1.4
				c-0.8,0-1.4,0.5-1.4,1.5v3.9h-1.9V9.1z"/>
			<path class="st2" d="M37.3,12.6v-0.1c0-2.2,1.3-3.5,3-3.5c1.1,0,1.8,0.5,2.1,1.2V6h1.9v9.9h-1.9v-1.1c-0.4,0.7-1.2,1.3-2.2,1.3
				C38.6,16,37.3,14.8,37.3,12.6z M42.5,12.5v-0.1c0-1.4-0.6-2-1.6-2c-1.1,0-1.6,0.7-1.6,2.1v0.1c0,1.4,0.6,2,1.6,2
				C41.8,14.6,42.5,13.9,42.5,12.5z"/>
			<path class="st2" d="M48.5,12.6v-0.1c0-2.1,1.5-3.5,3.6-3.5s3.6,1.4,3.6,3.5v0.1c0,2.1-1.5,3.5-3.6,3.5
				C50,16,48.5,14.7,48.5,12.6z M53.7,12.5L53.7,12.5c0-1.4-0.6-2.2-1.7-2.2c-1,0-1.7,0.8-1.7,2.1v0.1c0,1.3,0.6,2.1,1.7,2.1
				C53.1,14.6,53.7,13.8,53.7,12.5z"/>
			<path class="st2" d="M56.8,13.5V9.1h1.9v4.1c0,0.9,0.4,1.4,1.2,1.4c0.8,0,1.4-0.5,1.4-1.5v-4h1.9v6.8h-1.9v-1.1
				c-0.4,0.7-1,1.2-2.2,1.2C57.8,16,56.8,15.2,56.8,13.5z"/>
			<path class="st2" d="M65.1,13.9v-3.4h-0.9V9.1h0.9V7.6H67v1.5h1.4v1.3H67v3.3c0,0.5,0.3,0.8,0.8,0.8c0.3,0,0.5,0,0.7-0.1v1.5
				c-0.3,0.1-0.6,0.2-1.1,0.2C65.9,16,65.1,15.3,65.1,13.9z"/>
			<path class="st2" d="M72.6,9.1h1.9v1c0.3-0.6,1.1-1.2,2.1-1.2c0.9,0,1.6,0.4,1.9,1.2c0.5-0.8,1.4-1.2,2.3-1.2
				c1.3,0,2.2,0.8,2.2,2.6v4.4h-1.9v-4.1c0-0.9-0.4-1.3-1.1-1.3c-0.7,0-1.3,0.5-1.3,1.4v4h-1.9v-4.1c0-0.9-0.4-1.3-1.1-1.3
				c-0.7,0-1.3,0.5-1.3,1.4v4h-1.9V9.1z"/>
			<path class="st2" d="M84.2,12.6v-0.1c0-2.1,1.5-3.5,3.6-3.5c2,0,3.6,1.4,3.6,3.5v0.1c0,2.1-1.5,3.5-3.6,3.5
				C85.8,16,84.2,14.7,84.2,12.6z M89.5,12.5L89.5,12.5c0-1.4-0.6-2.2-1.7-2.2c-1,0-1.7,0.8-1.7,2.1v0.1c0,1.3,0.6,2.1,1.7,2.1
				C88.9,14.6,89.5,13.8,89.5,12.5z"/>
		</g>
		<g class="st1">
			<path class="st2" d="M92.6,9.1h1.9v1.3C95,9.5,95.6,9,96.7,9v1.8c-1.4,0-2.2,0.4-2.2,1.7v3.4h-1.9V9.1z"/>
		</g>
		<g class="st1">
			<path class="st2" d="M97.4,12.6v-0.1c0-2.1,1.5-3.5,3.5-3.5c1.8,0,3.3,1,3.3,3.5v0.5h-4.9c0.1,1.1,0.7,1.8,1.7,1.8
				c0.9,0,1.3-0.4,1.4-0.9h1.8c-0.2,1.5-1.4,2.3-3.2,2.3C98.9,16,97.4,14.7,97.4,12.6z M102.4,11.7c-0.1-1-0.6-1.5-1.5-1.5
				c-0.8,0-1.4,0.6-1.6,1.5H102.4z"/>
		</g>
		<path class="st2" d="M117.9,12l-3.3-3.6l0.9-1l4.2,4.6l-4.2,4.6l-0.9-1L117.9,12z"/>
	</g>
</g>
</svg>
