<?xml version="1.0" encoding="utf-8"?>
<!-- Generator: Adobe Illustrator 21.1.0, SVG Export Plug-In . SVG Version: 6.00 Build 0)  -->
<svg version="1.1" id="Layer_1" xmlns="http://www.w3.org/2000/svg" xmlns:xlink="http://www.w3.org/1999/xlink" x="0px" y="0px"
	 viewBox="0 0 785 41.9" style="enable-background:new 0 0 785 41.9;" xml:space="preserve">
<title>Asset 5</title>
<g>
	<path d="M2.5,3.7h2.3v18.6H2.5V3.7z"/>
	<path d="M9.4,8.7h2.2v2.1c0.6-1.3,2.1-2.3,4.1-2.3c1.7,0,3.3,0.7,4,2.5c0.9-1.8,3-2.5,4.7-2.5c2.4,0,4.6,1.5,4.6,5.4v8.4h-2.2v-8.6
		c0-2.4-1-3.4-2.9-3.4c-1.8,0-3.6,1.2-3.6,3.6v8.3H18v-8.6c0-2.4-1-3.4-2.9-3.4c-1.8,0-3.6,1.2-3.6,3.6v8.3H9.4V8.7z"/>
	<path d="M31.9,18.5c0-3.1,3.3-4.2,6.8-4.2h1.9v-1c0-2.2-0.8-3.1-2.9-3.1c-1.9,0-2.9,0.8-3.1,2.4h-2.2c0.3-3.1,2.8-4.2,5.4-4.2
		c2.6,0,5,1.1,5,4.9v9h-2.2v-1.7c-1,1.3-2.2,2-4.2,2C33.9,22.5,31.9,21.3,31.9,18.5z M40.7,17.5v-1.7h-1.9c-2.7,0-4.7,0.7-4.7,2.7
		c0,1.4,0.7,2.3,2.6,2.3C38.9,20.8,40.7,19.6,40.7,17.5z"/>
	<path d="M46.4,23.1h2.2c0.3,1.6,1.6,2.4,3.9,2.4c2.7,0,4.4-1.3,4.4-4.2v-2c-0.8,1.3-2.6,2.6-4.6,2.6c-3.6,0-6.2-2.7-6.2-6.4v-0.2
		c0-3.7,2.6-6.8,6.3-6.8c2.3,0,3.7,1.1,4.4,2.4V8.7H59v12.7c0,4-2.7,5.9-6.5,5.9C48.5,27.3,46.7,25.4,46.4,23.1z M56.9,15.2V15
		c0-3-1.7-4.8-4.3-4.8c-2.7,0-4.3,2-4.3,4.9v0.2c0,3,1.9,4.7,4.2,4.7C55,20.1,56.9,18.3,56.9,15.2z"/>
	<path d="M63,4.4C63,3.6,63.7,3,64.5,3c0.8,0,1.4,0.7,1.4,1.4c0,0.8-0.6,1.4-1.4,1.4C63.7,5.9,63,5.2,63,4.4z M63.4,8.7h2.2v13.6
		h-2.2C63.4,22.3,63.4,8.7,63.4,8.7z"/>
	<path d="M70,8.7h2.2v2.2c0.6-1.3,2.1-2.4,4.4-2.4c2.8,0,4.8,1.5,4.8,5.5v8.3h-2.2v-8.5c0-2.4-1-3.5-3.2-3.5c-2,0-3.8,1.3-3.8,3.7
		v8.2H70V8.7z"/>
	<path d="M84.6,15.6v-0.2c0-4.1,2.6-7,6.4-7c3.1,0,6.1,1.9,6.1,6.8v0.7H86.8c0.1,3.1,1.6,4.8,4.4,4.8c2.1,0,3.3-0.8,3.6-2.4H97
		c-0.5,2.7-2.7,4.2-5.8,4.2C87.3,22.5,84.6,19.8,84.6,15.6z M94.8,14.2c-0.2-2.8-1.7-3.9-3.9-3.9c-2.2,0-3.7,1.5-4.1,3.9
		C86.8,14.2,94.8,14.2,94.8,14.2z"/>
	<path d="M105.8,8.7h2.3l3.2,10.9l3.3-10.9h1.9l3.1,10.9l3.2-10.9h2.2l-4.2,13.6h-2.4l-2.8-10.2l-3.2,10.2H110L105.8,8.7z"/>
	<path d="M127.9,2.2h2.2v8.7c0.6-1.3,2.1-2.4,4.4-2.4c2.8,0,4.8,1.5,4.8,5.5v8.3H137v-8.5c0-2.4-1-3.5-3.2-3.5c-2,0-3.8,1.3-3.8,3.7
		v8.2h-2.2L127.9,2.2L127.9,2.2z"/>
	<path d="M142.3,18.5c0-3.1,3.3-4.2,6.8-4.2h2v-1c0-2.2-0.8-3.1-2.9-3.1c-1.9,0-2.9,0.8-3.1,2.4h-2.2c0.3-3.1,2.8-4.2,5.4-4.2
		c2.6,0,5,1.1,5,4.9v9h-2.2v-1.7c-1,1.3-2.2,2-4.2,2C144.3,22.5,142.3,21.3,142.3,18.5z M151.1,17.5v-1.7h-1.9
		c-2.7,0-4.7,0.7-4.7,2.7c0,1.4,0.7,2.3,2.6,2.3C149.3,20.8,151.1,19.6,151.1,17.5z"/>
	<path d="M157.9,18.9v-8.4H156V8.7h1.9V5.6h2.2v3.1h3.2v1.8h-3.2v8.2c0,1.3,0.6,2,1.7,2c0.7,0,1.2-0.1,1.7-0.3v1.8
		c-0.4,0.2-1,0.3-1.8,0.3C159.1,22.5,157.9,21,157.9,18.9z"/>
	<path d="M172.1,8.7h2.3l3.2,10.9l3.3-10.9h1.9l3.1,10.9l3.2-10.9h2.2l-4.2,13.6h-2.4l-2.8-10.2l-3.2,10.2h-2.4L172.1,8.7z"/>
	<path d="M192.9,15.6v-0.2c0-4.1,2.6-7,6.4-7c3.1,0,6.1,1.9,6.1,6.8v0.7h-10.2c0.1,3.1,1.6,4.8,4.4,4.8c2.1,0,3.3-0.8,3.6-2.4h2.2
		c-0.5,2.7-2.7,4.2-5.8,4.2C195.7,22.5,192.9,19.8,192.9,15.6z M203.2,14.2c-0.2-2.8-1.7-3.9-3.9-3.9s-3.7,1.5-4.1,3.9
		C195.2,14.2,203.2,14.2,203.2,14.2z"/>
	<path d="M214.6,15.6v-0.2c0-4.2,3-7,6.6-7c2.8,0,5.5,1.3,5.9,4.8H225c-0.3-2.2-1.9-3-3.8-3c-2.5,0-4.4,2-4.4,5.2v0.2
		c0,3.3,1.8,5.1,4.4,5.1c1.9,0,3.7-1.1,3.9-3.3h2c-0.3,2.9-2.7,5.1-5.9,5.1C217.5,22.5,214.6,19.8,214.6,15.6z"/>
	<path d="M229.3,18.5c0-3.1,3.3-4.2,6.8-4.2h1.9v-1c0-2.2-0.8-3.1-2.9-3.1c-1.9,0-2.9,0.8-3.1,2.4h-2.2c0.3-3.1,2.8-4.2,5.4-4.2
		c2.6,0,5,1.1,5,4.9v9H238v-1.7c-1,1.3-2.2,2-4.2,2C231.3,22.5,229.3,21.3,229.3,18.5z M238.1,17.5v-1.7h-1.9
		c-2.7,0-4.7,0.7-4.7,2.7c0,1.4,0.7,2.3,2.6,2.3C236.3,20.8,238.1,19.6,238.1,17.5z"/>
	<path d="M244.5,8.7h2.2v2.2c0.6-1.3,2.1-2.4,4.4-2.4c2.8,0,4.8,1.5,4.8,5.5v8.3h-2.2v-8.5c0-2.4-1-3.5-3.2-3.5
		c-2,0-3.8,1.3-3.8,3.7v8.2h-2.2V8.7z"/>
	<path d="M265.8,18.5c0-3.1,3.3-4.2,6.8-4.2h1.9v-1c0-2.2-0.8-3.1-2.9-3.1c-1.9,0-2.9,0.8-3.1,2.4h-2.2c0.3-3.1,2.8-4.2,5.4-4.2
		s5,1.1,5,4.9v9h-2.2v-1.7c-1,1.3-2.2,2-4.2,2C267.8,22.5,265.8,21.3,265.8,18.5z M274.6,17.5v-1.7h-1.9c-2.7,0-4.7,0.7-4.7,2.7
		c0,1.4,0.7,2.3,2.6,2.3C272.8,20.8,274.6,19.6,274.6,17.5z"/>
	<path d="M281,2.2h2.2v20.1H281V2.2z"/>
	<path d="M287.7,2.2h2.2v20.1h-2.2V2.2z"/>
	<path d="M300,18.5c0-3.1,3.3-4.2,6.8-4.2h2v-1c0-2.2-0.8-3.1-2.9-3.1c-1.9,0-2.9,0.8-3.1,2.4h-2.2c0.3-3.1,2.8-4.2,5.4-4.2
		s5,1.1,5,4.9v9h-2.2v-1.7c-1,1.3-2.2,2-4.2,2C302,22.5,300,21.3,300,18.5z M308.8,17.5v-1.7h-1.9c-2.7,0-4.7,0.7-4.7,2.7
		c0,1.4,0.7,2.3,2.6,2.3C307.1,20.8,308.8,19.6,308.8,17.5z"/>
	<path d="M314.2,15.6v-0.2c0-4.2,3-7,6.6-7c2.8,0,5.5,1.3,5.9,4.8h-2.1c-0.3-2.2-1.9-3-3.8-3c-2.5,0-4.4,2-4.4,5.2v0.2
		c0,3.3,1.8,5.1,4.4,5.1c1.9,0,3.7-1.1,3.9-3.3h2c-0.3,2.9-2.7,5.1-5.9,5.1C317,22.5,314.2,19.8,314.2,15.6z"/>
	<path d="M330,2.2h2.2v8.7c0.6-1.3,2.1-2.4,4.4-2.4c2.8,0,4.8,1.5,4.8,5.5v8.3h-2.2v-8.5c0-2.4-1-3.5-3.2-3.5c-2,0-3.8,1.3-3.8,3.7
		v8.2H330V2.2z"/>
	<path d="M365.4,8.7h2.3l4,11.4l4-11.4h2.2L373,22.3h-2.8L365.4,8.7z"/>
	<path d="M379.4,15.6v-0.2c0-4.1,2.6-7,6.4-7c3.1,0,6.1,1.9,6.1,6.8v0.7h-10.2c0.1,3.1,1.6,4.8,4.4,4.8c2.1,0,3.3-0.8,3.6-2.4h2.2
		c-0.5,2.7-2.7,4.2-5.8,4.2C382.2,22.5,379.4,19.8,379.4,15.6z M389.7,14.2c-0.2-2.8-1.7-3.9-3.9-3.9c-2.2,0-3.7,1.5-4.1,3.9
		C381.7,14.2,389.7,14.2,389.7,14.2z"/>
	<path d="M401.8,4.4c0-0.8,0.7-1.4,1.4-1.4c0.8,0,1.4,0.7,1.4,1.4c0,0.8-0.7,1.4-1.4,1.4C402.4,5.9,401.8,5.2,401.8,4.4z M402.2,8.7
		h2.2v13.6h-2.2V8.7z"/>
	<path d="M409.2,10.5h-1.9V8.7h1.9V6.5c0-2.8,1.4-4.4,4.1-4.4c0.7,0,1.1,0.1,1.6,0.3v1.8c-0.4-0.2-0.9-0.3-1.5-0.3c-1.4,0-2,1-2,2.3
		v2.4h3.3v1.8h-3.3v11.8h-2.2V10.5z"/>
	<path d="M423.2,8.7h2.3l3.2,10.9L432,8.7h1.9l3.1,10.9l3.2-10.9h2.2l-4.2,13.6h-2.4L433,12.1l-3.2,10.2h-2.4L423.2,8.7z"/>
	<path d="M444,15.6v-0.2c0-4.1,2.6-7,6.4-7c3.1,0,6.1,1.9,6.1,6.8v0.7h-10.2c0.1,3.1,1.6,4.8,4.4,4.8c2.1,0,3.3-0.8,3.6-2.4h2.2
		c-0.5,2.7-2.7,4.2-5.8,4.2C446.7,22.5,444,19.8,444,15.6z M454.3,14.2c-0.2-2.8-1.7-3.9-3.9-3.9c-2.2,0-3.7,1.5-4.1,3.9
		C446.3,14.2,454.3,14.2,454.3,14.2z"/>
	<path d="M465.7,15.6v-0.2c0-4.2,3-7,6.6-7c2.8,0,5.5,1.3,5.9,4.8H476c-0.3-2.2-1.9-3-3.8-3c-2.5,0-4.4,2-4.4,5.2v0.2
		c0,3.3,1.8,5.1,4.4,5.1c1.9,0,3.7-1.1,3.9-3.3h2c-0.3,2.9-2.7,5.1-5.9,5.1C468.5,22.5,465.7,19.8,465.7,15.6z"/>
	<path d="M480.5,15.6v-0.2c0-4.1,2.8-6.9,6.7-6.9c3.8,0,6.7,2.8,6.7,6.9v0.2c0,4.1-2.8,6.9-6.7,6.9S480.5,19.6,480.5,15.6z
		 M491.6,15.6v-0.2c0-3.1-1.7-5.2-4.4-5.2c-2.7,0-4.4,2-4.4,5.1v0.2c0,3.1,1.7,5.1,4.4,5.1C489.9,20.7,491.6,18.7,491.6,15.6z"/>
	<path d="M497.2,8.7h2.2v2.2c0.6-1.3,2.1-2.4,4.4-2.4c2.8,0,4.8,1.5,4.8,5.5v8.3h-2.2v-8.5c0-2.4-1-3.5-3.2-3.5
		c-2,0-3.8,1.3-3.8,3.7v8.2h-2.2L497.2,8.7L497.2,8.7z"/>
	<path d="M513.2,18.9v-8.4h-2V8.7h2V5.6h2.2v3.1h3.2v1.8h-3.2v8.2c0,1.3,0.6,2,1.7,2c0.7,0,1.2-0.1,1.7-0.3v1.8
		c-0.4,0.2-1,0.3-1.8,0.3C514.4,22.5,513.2,21,513.2,18.9z"/>
	<path d="M521.6,4.4c0-0.8,0.7-1.4,1.4-1.4c0.8,0,1.4,0.7,1.4,1.4c0,0.8-0.7,1.4-1.4,1.4C522.3,5.9,521.6,5.2,521.6,4.4z M522,8.7
		h2.2v13.6H522V8.7z"/>
	<path d="M528.6,8.7h2.2v2.2c0.6-1.3,2.1-2.4,4.4-2.4c2.8,0,4.8,1.5,4.8,5.5v8.3h-2.2v-8.5c0-2.4-1-3.5-3.2-3.5
		c-2,0-3.8,1.3-3.8,3.7v8.2h-2.2V8.7z"/>
	<path d="M544,17.3V8.7h2.2v8.5c0,2.4,1,3.5,3.1,3.5c1.9,0,3.7-1.3,3.7-3.7V8.7h2.2v13.6H553v-2.2c-0.6,1.3-2.1,2.4-4.3,2.4
		C546,22.5,544,21,544,17.3z"/>
	<path d="M558.6,15.6v-0.2c0-4.1,2.6-7,6.4-7c3.1,0,6.1,1.9,6.1,6.8v0.7h-10.2c0.1,3.1,1.6,4.8,4.4,4.8c2.1,0,3.3-0.8,3.6-2.4h2.2
		c-0.5,2.7-2.7,4.2-5.8,4.2C561.3,22.5,558.6,19.8,558.6,15.6z M568.9,14.2c-0.2-2.8-1.7-3.9-3.9-3.9s-3.7,1.5-4.1,3.9
		C560.9,14.2,568.9,14.2,568.9,14.2z"/>
	<path d="M581.7,18.9v-8.4h-2V8.7h2V5.6h2.2v3.1h3.2v1.8h-3.2v8.2c0,1.3,0.6,2,1.7,2c0.7,0,1.2-0.1,1.7-0.3v1.8
		c-0.4,0.2-1,0.3-1.8,0.3C582.9,22.5,581.7,21,581.7,18.9z"/>
	<path d="M589.5,15.6v-0.2c0-4.1,2.8-6.9,6.7-6.9c3.8,0,6.7,2.8,6.7,6.9v0.2c0,4.1-2.8,6.9-6.7,6.9
		C592.2,22.5,589.5,19.6,589.5,15.6z M600.6,15.6v-0.2c0-3.1-1.7-5.2-4.4-5.2s-4.4,2-4.4,5.1v0.2c0,3.1,1.7,5.1,4.4,5.1
		C598.9,20.7,600.6,18.7,600.6,15.6z"/>
	<path d="M613.5,18.9v-8.4h-2V8.7h2V5.6h2.2v3.1h3.2v1.8h-3.2v8.2c0,1.3,0.6,2,1.7,2c0.7,0,1.2-0.1,1.7-0.3v1.8
		c-0.4,0.2-1,0.3-1.8,0.3C614.7,22.5,613.5,21,613.5,18.9z"/>
	<path d="M622.3,2.2h2.2v8.7c0.6-1.3,2.1-2.4,4.4-2.4c2.8,0,4.8,1.5,4.8,5.5v8.3h-2.2v-8.5c0-2.4-1-3.5-3.2-3.5
		c-2,0-3.8,1.3-3.8,3.7v8.2h-2.2V2.2z"/>
	<path d="M637.5,4.4c0-0.8,0.6-1.4,1.4-1.4s1.4,0.7,1.4,1.4c0,0.8-0.6,1.4-1.4,1.4S637.5,5.2,637.5,4.4z M637.9,8.7h2.2v13.6h-2.2
		V8.7z"/>
	<path d="M644.5,8.7h2.2v2.2c0.6-1.3,2.1-2.4,4.4-2.4c2.8,0,4.8,1.5,4.8,5.5v8.3h-2.2v-8.5c0-2.4-1-3.5-3.2-3.5
		c-2,0-3.8,1.3-3.8,3.7v8.2h-2.2V8.7z"/>
	<path d="M660,2.2h2.2V15l5.6-6.3h2.5l-5.8,6.3l6.3,7.3h-2.6l-6-7v7H660V2.2z"/>
	<path d="M682.5,20.1v2.2h-2.2V2.2h2.2V11c0.8-1.3,2.6-2.5,4.6-2.5c3.6,0,6.2,2.6,6.2,6.8v0.2c0,4.2-2.4,7-6.2,7
		C684.9,22.5,683.3,21.4,682.5,20.1z M691,15.6v-0.2c0-3.4-1.9-5.1-4.2-5.1c-2.5,0-4.4,1.7-4.4,5.1v0.2c0,3.5,1.8,5.1,4.5,5.1
		S691,18.9,691,15.6z"/>
	<path d="M696.3,4.4c0-0.8,0.6-1.4,1.4-1.4s1.4,0.7,1.4,1.4c0,0.8-0.6,1.4-1.4,1.4S696.3,5.2,696.3,4.4z M696.7,8.7h2.2v13.6h-2.2
		V8.7z"/>
	<path d="M702.5,23.1h2.2c0.3,1.6,1.6,2.4,3.9,2.4c2.7,0,4.4-1.3,4.4-4.2v-2c-0.8,1.3-2.6,2.6-4.6,2.6c-3.6,0-6.2-2.7-6.2-6.4v-0.2
		c0-3.7,2.6-6.8,6.3-6.8c2.3,0,3.7,1.1,4.4,2.4V8.7h2.2v12.7c0,4-2.7,5.9-6.5,5.9C704.7,27.3,702.9,25.4,702.5,23.1z M713.1,15.2V15
		c0-3-1.7-4.8-4.3-4.8c-2.7,0-4.3,2-4.3,4.9v0.2c0,3,1.9,4.7,4.2,4.7C711.2,20.1,713.1,18.3,713.1,15.2z"/>
	<path d="M719.4,20.8c0-0.9,0.8-1.7,1.7-1.7s1.7,0.7,1.7,1.7c0,0.9-0.8,1.7-1.7,1.7C720.1,22.4,719.4,21.7,719.4,20.8z"/>
	<path d="M345.3,4.4c0-0.8,0.6-1.4,1.4-1.4c0.8,0,1.4,0.7,1.4,1.4c0,0.8-0.6,1.4-1.4,1.4C345.9,5.9,345.3,5.2,345.3,4.4z M345.6,8.7
		h2.2v13.6h-2.2V8.7z"/>
	<path d="M351.2,15.6v-0.2c0-4.1,2.6-7,6.4-7c3.1,0,6.1,1.9,6.1,6.8v0.7h-10.2c0.1,3.1,1.6,4.8,4.4,4.8c2.1,0,3.3-0.8,3.6-2.4h2.2
		c-0.5,2.7-2.7,4.2-5.8,4.2C353.9,22.5,351.2,19.8,351.2,15.6z M361.5,14.2c-0.2-2.8-1.7-3.9-3.9-3.9c-2.2,0-3.7,1.5-4.1,3.9H361.5z
		"/>
</g>
</svg>
